# xmcd CD database file
#
# Track frame offsets:
#	150
#	19992
#	38470
#	56792
#
# Disc length: 1075 seconds
#
# Revision: 0
# Processed by: cddbd v1.5.1PL0 Copyright (c) Steve Scherf et al.
# Submitted via: CDex 1.51
#
DISCID=2b043104
DTITLE=Clarence Greenwood - Citizen Pope
DYEAR=2004
DGENRE=Jazz
TTITLE0=Bullet And A Target
TTITLE1=Pablo Picasso
TTITLE2=Son's Gonna Rise
TTITLE3=Sideways
EXTD=YEAR: 2004
EXTT0=
EXTT1=
EXTT2=
EXTT3=
PLAYORDER=
